HIERARCHY
ROOT SpineBase
{
  OFFSET 0.000000 0.000000 0.000000
  CHANNELS 6 Xposition Yposition Zposition Zrotation Xrotation Yrotation
  JOINT SpineMid
  {
    OFFSET 0.000000 32.217504 0.000000
    CHANNELS 3 Zrotation Xrotation Yrotation
    JOINT SpineShoulder
    {
      OFFSET -0.125610 23.914593 -0.783359
      CHANNELS 3 Zrotation Xrotation Yrotation
      JOINT Neck
      {
        OFFSET -0.094932 7.905306 -0.581401
        CHANNELS 3 Zrotation Xrotation Yrotation
        JOINT Head
        {
          OFFSET 1.309019 15.650290 -3.299675
          CHANNELS 3 Zrotation Xrotation Yrotation
          End Site
          {
            OFFSET 0 0 0
          }
        }
      }
      JOINT ShoulderLeft
      {
        OFFSET -18.252982 -4.002744 -2.107937
        CHANNELS 3 Zrotation Xrotation Yrotation
        JOINT ElbowLeft
        {
          OFFSET -4.640527 -28.052191 -0.309346
          CHANNELS 3 Zrotation Xrotation Yrotation
          JOINT WristLeft
          {
            OFFSET -0.981167 -23.346971 -7.546095
            CHANNELS 3 Zrotation Xrotation Yrotation
            JOINT HandLeft
            {
              OFFSET 1.377754 -7.503333 -1.934698
              CHANNELS 3 Zrotation Xrotation Yrotation
              JOINT HandTipLeft
              {
                OFFSET -0.110283 -7.237826 -1.088742
                CHANNELS 3 Zrotation Xrotation Yrotation
                End Site
                {
                  OFFSET 0 0 0
                }
              }
              JOINT ThumbLeft
              {
                OFFSET 3.631876 -0.051499 -1.954444
                CHANNELS 3 Zrotation Xrotation Yrotation
                End Site
                {
                  OFFSET 0 0 0
                }
              }
            }
          }
        }
      }
      JOINT ShoulderRight
      {
        OFFSET 16.470159 -5.703129 2.537190
        CHANNELS 3 Zrotation Xrotation Yrotation
        JOINT ElbowRight
        {
          OFFSET -0.794090 -31.248694 -4.121995
          CHANNELS 3 Zrotation Xrotation Yrotation
          JOINT WristRight
          {
            OFFSET 2.372365 -24.530664 -3.656340
            CHANNELS 3 Zrotation Xrotation Yrotation
            JOINT HandRight
            {
              OFFSET -1.091125 -4.431486 1.536014
              CHANNELS 3 Zrotation Xrotation Yrotation
              JOINT HandTipRight
              {
                OFFSET 0.620553 -6.356140 -0.330079
                CHANNELS 3 Zrotation Xrotation Yrotation
                End Site
                {
                  OFFSET 0 0 0
                }
              }
              JOINT ThumbRight
              {
                OFFSET -3.709069 -0.269133 -4.166664
                CHANNELS 3 Zrotation Xrotation Yrotation
                End Site
                {
                  OFFSET 0 0 0
                }
              }
            }
          }
        }
      }
    }
  }
  JOINT HipLeft
  {
    OFFSET -7.657786 1.150338 -4.272768
    CHANNELS 3 Zrotation Xrotation Yrotation
    JOINT KneeLeft
    {
      OFFSET -6.081782 -39.871601 -0.700758
      CHANNELS 3 Zrotation Xrotation Yrotation
      JOINT AnkleLeft
      {
        OFFSET -1.451597 -34.744805 7.511473
        CHANNELS 3 Zrotation Xrotation Yrotation
        JOINT FootLeft
        {
          OFFSET 0.319623 -8.717462 -5.226519
          CHANNELS 3 Zrotation Xrotation Yrotation
          End Site
          {
            OFFSET 0 0 0
          }
        }
      }
    }
  }
  JOINT HipRight
  {
    OFFSET 6.404314 0.481013 -2.550647
    CHANNELS 3 Zrotation Xrotation Yrotation
    JOINT KneeRight
    {
      OFFSET -0.473111 -39.790858 2.798307
      CHANNELS 3 Zrotation Xrotation Yrotation
      JOINT AnkleRight
      {
        OFFSET -3.156344 -36.784219 9.405604
        CHANNELS 3 Zrotation Xrotation Yrotation
        JOINT FootRight
        {
          OFFSET 0.769014 -3.825965 -14.410602
          CHANNELS 3 Zrotation Xrotation Yrotation
          End Site
          {
            OFFSET 0 0 0
          }
        }
      }
    }
  }
}
MOTION
Frames: 5
Frame Time: 0.033333
61.713179 82.128252 329.252375 -2.390303 -6.888195 0.717932 -1.147786 -3.368198 -1.067772 0.372274 0.532559 -0.195208 -3.879955 -5.267874 0.134776 0.000000 0.000000 0.000000 -2.521340 0.168629 2.202687 0.713086 5.939539 0.387075 2.599397 -4.533234 -2.888122 -7.945138 16.888177 4.248191 0.000000 0.000000 0.000000 0.000000 0.000000 0.000000 -0.835141 12.900579 1.269102 -7.694718 -7.453201 -0.091016 13.291252 -21.312480 5.305042 -10.052141 22.556918 -2.407970 0.000000 0.000000 0.000000 0.000000 0.000000 0.000000 2.494040 6.851471 -1.011130 -0.970852 1.287277 -0.253295 -1.982440 34.141556 3.551935 0.000000 0.000000 0.000000 2.356162 5.755824 -0.991227 -0.836678 0.945428 -0.219614 -0.778138 -3.660044 6.833801 0.000000 0.000000 0.000000
61.530464 81.915293 329.697978 -3.180846 -8.918269 4.820727 -1.449349 -3.470173 -5.329534 0.423597 0.638692 -0.243866 -2.601866 -5.168018 0.457743 0.000000 0.000000 0.000000 -2.420588 0.123766 2.684988 -0.495305 6.916471 0.988272 4.378546 -5.895163 -4.184634 -11.674188 14.152347 6.065369 0.000000 0.000000 0.000000 0.000000 0.000000 0.000000 -0.121759 14.865629 1.366836 -8.551803 -11.659901 -0.940280 16.605495 -16.494037 5.914461 -11.600809 22.419882 -3.060204 0.000000 0.000000 0.000000 0.000000 0.000000 0.000000 3.960948 8.602350 -5.366870 -1.077258 2.444985 -0.313396 -1.359850 26.803385 2.958134 0.000000 0.000000 0.000000 3.997787 7.312446 -5.345717 -1.116441 1.289700 -0.248940 -1.478281 -4.624484 9.976682 0.000000 0.000000 0.000000
61.274588 81.718342 330.181092 -3.996881 -10.882103 9.390328 -1.626274 -3.294244 -10.080072 0.435628 0.655027 -0.287959 -1.391974 -5.546524 0.726897 0.000000 0.000000 0.000000 -2.022878 -0.362808 3.122170 -1.920363 6.481027 1.576081 4.558809 -5.197262 -5.092628 -10.861402 10.405803 6.063329 0.000000 0.000000 0.000000 0.000000 0.000000 0.000000 0.534131 16.757723 1.427015 -9.432205 -17.363184 -2.200061 19.377983 -8.073779 5.157682 -15.442359 18.997696 -2.767293 0.000000 0.000000 0.000000 0.000000 0.000000 0.000000 5.799349 10.045682 -10.281326 -1.126215 3.772891 -0.366531 -0.402205 18.190140 2.102623 0.000000 0.000000 0.000000 6.023776 8.462923 -10.264192 -1.452670 1.678465 -0.277272 -2.144510 -5.577866 13.085798 0.000000 0.000000 0.000000
61.000334 81.480139 330.714572 -4.712013 -12.635692 13.538149 -1.532359 -2.794792 -14.395028 0.415978 0.611725 -0.318535 -0.778426 -6.580200 0.893941 0.000000 0.000000 0.000000 -1.402012 -1.634308 3.487489 -3.554840 5.667760 2.133301 3.239189 -3.802444 -5.513036 -8.568673 10.181323 5.813489 0.000000 0.000000 0.000000 0.000000 0.000000 0.000000 1.020685 18.101392 1.442473 -10.120329 -22.967527 -3.544303 21.643134 1.408895 3.522969 -20.745207 15.956193 -1.797930 0.000000 0.000000 0.000000 0.000000 0.000000 0.000000 7.666155 11.111800 -14.806957 -1.120073 5.201079 -0.412607 0.820311 9.278493 1.142240 0.000000 0.000000 0.000000 8.017133 9.292639 -14.793094 -1.715928 1.945286 -0.293588 -2.693065 -6.399847 15.651461 0.000000 0.000000 0.000000
60.778198 81.219165 331.208846 -5.273964 -14.080954 17.090219 -1.411386 -2.319015 -18.090450 0.319047 0.343793 -0.350099 -0.288644 -7.598809 1.026006 0.000000 0.000000 0.000000 -0.629107 -2.672280 3.780872 -4.781105 3.629176 2.422416 0.509911 -1.411242 -5.133197 -3.085780 6.554325 3.910443 0.000000 0.000000 0.000000 0.000000 0.000000 0.000000 1.459918 19.384993 1.460664 -11.160197 -29.155813 -5.215212 25.699983 14.705078 -0.074882 -26.458314 8.222828 -2.507655 0.000000 0.000000 0.000000 0.000000 0.000000 0.000000 8.999344 11.067006 -18.516122 -0.944885 7.352338 -0.557623 1.403110 1.673266 0.653580 0.000000 0.000000 0.000000 9.774014 9.798924 -18.696143 -1.915423 2.080240 -0.300367 -3.191704 -7.046744 18.048978 0.000000 0.000000 0.000000
